<svg width="16px" height="16px" viewBox="0 0 16 16" version="1.1" xmlns="http://www.w3.org/2000/svg" xmlns:xlink="http://www.w3.org/1999/xlink">
    <title>icon/dock/gfx</title>
    <g id="icon/dock/gfx" stroke="none" stroke-width="1" fill="none" fill-rule="evenodd">
        <path d="M2.17.83c-.75 0-1.34.6-1.34 1.34v11.66c0 .75.6 1.34 1.34 1.34h11.66c.75 0 1.34-.6 1.34-1.34V2.17c0-.75-.6-1.34-1.34-1.34zm1.51.98c.58 0 1.13.22 1.54.63l-.54.64a1.24 1.24 0 0 0-.96-.43c-.82 0-1.4.64-1.4 1.7s.49 1.69 1.47 1.69c.22 0 .45-.06.64-.18V4.9h-.89v-.8H5.3v2.2c-.32.33-.9.6-1.6.6-1.37 0-2.4-.92-2.4-2.53 0-1.6 1.06-2.56 2.4-2.56zm10.04.11h.99v2.69c0 1.62-.72 2.3-1.93 2.3-1.23 0-1.96-.67-1.96-2.28V1.92h.99v2.74c0 1.03.36 1.39.95 1.39.6 0 .96-.36.96-1.39zm-7.36.02H8c1.12 0 1.93.35 1.93 1.53 0 1.1-.85 1.6-1.9 1.6h-.67v1.76H6.35Zm1.02.75v1.6h.59C8.67 4.29 9 4 9 3.43c0-.55-.37-.74-1.06-.74ZM9.5 7.45l2.06 1.22c.22.1.22.43 0 .54L9.5 10.43a.3.3 0 0 1-.47-.26v-.72H4.6c-.27.08-.27-1.02 0-1.02h4.42v-.7c0-.5.32-.38.47-.28ZM6.97 11.4v.72h4.42c.27 0 .26 1.03 0 1.03H6.96v.72a.3.3 0 0 1-.47.26L4.45 12.9a.3.3 0 0 1 0-.54l2.05-1.22c.27-.16.47-.11.47.26z" id="Combined-Shape" fill="#FFFFFF"></path>
    </g>
</svg>